# xmcd CD database file
#
# Track frame offsets:
#	150
#	21209
#	42623
#	60749
#	76579
#	92745
#	114203
#	133342
#	149184
#	165326
#	183858
#	199826
#	216795
#	237096
#
# Disc length: 3378 seconds
#
# Revision: 0
# Processed by: cddbd v1.4PL0 Copyright (c) Steve Scherf et al.
# Submitted via: CDex 1.50Beta7
#
DISCID=c10d300e
DTITLE=Mel Ashton - Night Of The Eagle
DYEAR=1999
DGENRE=New Age
TTITLE0=Butterfly Romance
TTITLE1=Legend Of Angels
TTITLE2=Sounds Behind The Dream
TTITLE3=Autumn Feelings
TTITLE4=The Most Beautiful Forest
TTITLE5=Love Before Sunrise
TTITLE6=Dolphins Love Is All Around
TTITLE7=Message Of Freedom
TTITLE8=Nature Silence
TTITLE9=Night Of The Eagle
TTITLE10=Mission Of The Wave
TTITLE11=The World Of The Secret Mind
TTITLE12=Silverstream
TTITLE13=Magic Instruments Of Live
EXTD=YEAR: 1999
EXTT0=
EXTT1=
EXTT2=
EXTT3=
EXTT4=
EXTT5=
EXTT6=
EXTT7=
EXTT8=
EXTT9=
EXTT10=
EXTT11=
EXTT12=
EXTT13=
PLAYORDER=
